<svg xmlns="http://www.w3.org/2000/svg" viewBox="0 0 490.672 490.672"><path d="M330.667 277.336h-128c-17.643 0-32-14.357-32-32s14.357-32 32-32h128c5.888 0 10.667-4.779 10.667-10.667V53.336c0-29.397-23.936-53.333-53.333-53.333H53.333C23.936.003 0 23.939 0 53.336v384c0 29.397 23.936 53.333 53.333 53.333H288c29.397 0 53.333-23.936 53.333-53.333V288.003a10.657 10.657 0 0 0-10.666-10.667z"/><path d="M489.856 241.261a10.164 10.164 0 0 0-2.325-3.477l-85.312-85.312c-4.16-4.16-10.923-4.16-15.083 0s-4.16 10.923 0 15.083l67.115 67.115H202.667c-5.888 0-10.667 4.779-10.667 10.667s4.779 10.667 10.667 10.667h251.584l-67.115 67.115c-4.16 4.16-4.16 10.923 0 15.083a10.56 10.56 0 0 0 7.531 3.136c2.731 0 5.461-1.045 7.552-3.115l85.312-85.312c1.003-1.003 1.771-2.197 2.325-3.499a10.586 10.586 0 0 0 0-8.151z"/></svg>