<svg xmlns="http://www.w3.org/2000/svg" height="25" width="25" viewBox="0 0 490.667 490.667"><path d="M195.115 323.115c-4.16 4.16-4.16 10.923 0 15.083a10.645 10.645 0 0 0 7.552 3.136c2.731 0 5.461-1.045 7.552-3.115l85.333-85.333c4.16-4.16 4.16-10.923 0-15.083l-85.333-85.333c-4.16-4.16-10.923-4.16-15.083 0s-4.16 10.923 0 15.083l67.115 67.115H10.667C4.779 234.667 0 239.445 0 245.333S4.779 256 10.667 256h251.584l-67.136 67.115z"/><path d="M437.333 0H202.667c-29.397 0-53.333 23.936-53.333 53.333v149.333c0 5.888 4.779 10.667 10.667 10.667h25.003c4.309 0 8.213-2.603 9.856-6.592a10.643 10.643 0 0 0-2.304-11.627l-12.523-12.48c-6.037-6.059-9.365-14.101-9.365-22.635s3.328-16.576 9.387-22.635c12.053-12.096 33.152-12.096 45.248 0l85.333 85.333c6.037 6.059 9.365 14.08 9.365 22.635s-3.328 16.576-9.365 22.635L225.303 353.3c-12.053 12.096-33.152 12.096-45.248 0-6.059-6.059-9.387-14.101-9.387-22.635 0-8.533 3.328-16.576 9.365-22.635l12.501-12.501a10.643 10.643 0 0 0 2.304-11.627c-1.621-3.968-5.525-6.571-9.835-6.571H160c-5.888 0-10.667 4.779-10.667 10.667v149.333c0 29.397 23.936 53.333 53.333 53.333h234.667c29.397 0 53.333-23.936 53.333-53.333v-384C490.667 23.936 466.731 0 437.333 0z"/></svg>